<svg xmlns="http://www.w3.org/2000/svg" viewBox="0 0 100 100">
  <defs>
    <linearGradient id="shieldGrad" x1="0%" y1="0%" x2="0%" y2="100%">
      <stop offset="0%" style="stop-color:#5749AD;stop-opacity:1" />
      <stop offset="100%" style="stop-color:#3d2f7a;stop-opacity:1" />
    </linearGradient>
  </defs>
  <!-- Shield -->
  <path d="M50 5 L85 20 L85 45 Q85 75 50 95 Q15 75 15 45 L15 20 Z" fill="url(#shieldGrad)" stroke="#2B2B34" stroke-width="2"/>
  <!-- Lock body -->
  <rect x="40" y="50" width="20" height="20" rx="2" fill="#2B2B34"/>
  <rect x="41" y="51" width="18" height="18" rx="1.5" fill="#fff"/>
  <!-- Lock shackle -->
  <path d="M45 50 L45 42 Q45 35 50 35 Q55 35 55 42 L55 50" stroke="#2B2B34" stroke-width="3" fill="none" stroke-linecap="round"/>
  <path d="M45.5 50 L45.5 42 Q45.5 35.5 50 35.5 Q54.5 35.5 54.5 42 L54.5 50" stroke="#fff" stroke-width="2" fill="none" stroke-linecap="round"/>
  <!-- Keyhole -->
  <circle cx="50" cy="58" r="2.5" fill="#5749AD"/>
  <rect x="48.5" y="58" width="3" height="6" fill="#5749AD"/>
</svg>
